<svg xmlns="http://www.w3.org/2000/svg" width="185" height="185" viewBox="0 0 185 185">
  <g id="Group_49" data-name="Group 49" transform="translate(-405 -2416.176)">
    <g id="Group_12" data-name="Group 12" transform="translate(445.511 2416.176)">
      <g id="Group_11" data-name="Group 11">
        <path id="Path_1" data-name="Path 1" d="M208.932,19.843A84.89,84.89,0,0,0,158.05,3.059c-16.833,0-33.556,4.848-46,13.159V3.059a3.059,3.059,0,0,0-6.118,0V22.3a3.059,3.059,0,0,0,5.014,2.352C122.61,14.964,140.22,9.176,158.05,9.176a78.814,78.814,0,0,1,47.238,15.585,3.06,3.06,0,0,0,3.643-4.918Z" transform="translate(-105.93)" fill="#9ab4ce"/>
      </g>
    </g>
    <g id="Group_14" data-name="Group 14" transform="translate(564.637 2456.69)">
      <g id="Group_13" data-name="Group 13">
        <path id="Path_2" data-name="Path 2" d="M464.167,109a3.06,3.06,0,0,0-3.059-3.059H441.865a3.059,3.059,0,0,0-2.352,5.014c9.691,11.666,15.478,29.273,15.478,47.107A78.814,78.814,0,0,1,439.406,205.3a3.06,3.06,0,0,0,4.918,3.643,84.893,84.893,0,0,0,16.784-50.881c0-16.833-4.845-33.556-13.159-46h13.159A3.06,3.06,0,0,0,464.167,109Z" transform="translate(-438.804 -105.939)" fill="#9ab4ce"/>
      </g>
    </g>
    <g id="Group_16" data-name="Group 16" transform="translate(445.249 2575.814)">
      <g id="Group_15" data-name="Group 15">
        <path id="Path_3" data-name="Path 3" d="M207.724,439.1a3.056,3.056,0,0,0-3.255.416C192.806,449.21,175.2,455,157.366,455a78.816,78.816,0,0,1-47.241-15.585,3.059,3.059,0,1,0-3.643,4.916,84.893,84.893,0,0,0,50.881,16.784c16.833,0,33.556-4.848,46-13.159v13.159a3.059,3.059,0,0,0,6.118,0v-19.24A3.06,3.06,0,0,0,207.724,439.1Z" transform="translate(-105.244 -438.809)" fill="#9ab4ce"/>
      </g>
    </g>
    <g id="Group_18" data-name="Group 18" transform="translate(405 2456.425)">
      <g id="Group_17" data-name="Group 17">
        <path id="Path_4" data-name="Path 4" d="M24.652,204.471C14.961,192.8,9.174,175.2,9.174,157.364a78.814,78.814,0,0,1,15.585-47.238,3.059,3.059,0,0,0-4.916-3.643A84.892,84.892,0,0,0,3.059,157.364c0,16.833,4.848,33.556,13.159,46H3.059a3.059,3.059,0,0,0,0,6.118H22.3a3.059,3.059,0,0,0,2.349-5.014Z" transform="translate(0 -105.245)" fill="#9ab4ce"/>
      </g>
    </g>
    <g id="Group_20" data-name="Group 20" transform="translate(445.499 2456.675)">
      <g id="Group_19" data-name="Group 19">
        <path id="Path_5" data-name="Path 5" d="M206.868,148.758h-5.907a2.951,2.951,0,0,1-2.869-2.031,45.621,45.621,0,0,0-3.38-8.8,2.967,2.967,0,0,1,.578-3.487l4.181-4.181a3.058,3.058,0,0,0,0-4.325l-9.547-9.547a3.055,3.055,0,0,0-4.325,0l-4.181,4.178a2.971,2.971,0,0,1-3.487.581,45.9,45.9,0,0,0-8.8-3.383A2.951,2.951,0,0,1,167.1,114.9V108.99a3.06,3.06,0,0,0-3.059-3.059H151.808a3.06,3.06,0,0,0-3.059,3.059v5.9a2.954,2.954,0,0,1-2.031,2.869,46.165,46.165,0,0,0-8.794,3.38,2.966,2.966,0,0,1-3.487-.578l-4.178-4.178a3.055,3.055,0,0,0-4.325,0l-9.547,9.547a3.058,3.058,0,0,0,0,4.325l4.181,4.181a2.976,2.976,0,0,1,.578,3.487,45.828,45.828,0,0,0-3.38,8.8,2.951,2.951,0,0,1-2.869,2.031H108.99a3.06,3.06,0,0,0-3.059,3.059v12.235a3.06,3.06,0,0,0,3.059,3.059h5.91a2.954,2.954,0,0,1,2.869,2.031,46.017,46.017,0,0,0,3.38,8.8,2.971,2.971,0,0,1-.578,3.487l-4.181,4.181a3.058,3.058,0,0,0,0,4.325l9.547,9.547a3.055,3.055,0,0,0,4.325,0l4.181-4.178a2.973,2.973,0,0,1,3.484-.581,45.9,45.9,0,0,0,8.8,3.383,2.951,2.951,0,0,1,2.031,2.869v5.907a3.06,3.06,0,0,0,3.059,3.059H164.05a3.051,3.051,0,0,0,3.053-3.059v-5.9a2.953,2.953,0,0,1,2.034-2.869,45.975,45.975,0,0,0,8.794-3.38,2.966,2.966,0,0,1,3.487.578l4.181,4.178a3.055,3.055,0,0,0,4.325,0l9.547-9.547a3.058,3.058,0,0,0,0-4.325l-4.181-4.181a2.971,2.971,0,0,1-.578-3.487,45.644,45.644,0,0,0,3.38-8.8,2.951,2.951,0,0,1,2.869-2.031h5.907a3.06,3.06,0,0,0,3.059-3.059V151.817A3.06,3.06,0,0,0,206.868,148.758Zm-3.05,12.229H200.97a9.1,9.1,0,0,0-8.739,6.421,39.959,39.959,0,0,1-2.884,7.6,9.123,9.123,0,0,0,1.627,10.74l2.016,2.019-5.222,5.222-2.016-2.016a9.117,9.117,0,0,0-10.74-1.627,40.409,40.409,0,0,1-7.6,2.884,9.1,9.1,0,0,0-6.424,8.739v2.848h-6.112V200.97a9.1,9.1,0,0,0-6.421-8.736,40.37,40.37,0,0,1-7.6-2.888,9.114,9.114,0,0,0-10.737,1.627l-2.016,2.016-5.222-5.222,2.019-2.019a9.121,9.121,0,0,0,1.624-10.74,40.149,40.149,0,0,1-2.884-7.6,9.1,9.1,0,0,0-8.739-6.421h-2.848v-6.118H114.9a9.1,9.1,0,0,0,8.739-6.421,40.043,40.043,0,0,1,2.884-7.6,9.123,9.123,0,0,0-1.627-10.737L122.88,128.1l5.222-5.222,2.016,2.016a9.113,9.113,0,0,0,10.74,1.627,40.28,40.28,0,0,1,7.6-2.884,9.1,9.1,0,0,0,6.424-8.739v-2.848h6.118v2.842a9.1,9.1,0,0,0,6.421,8.736,40.405,40.405,0,0,1,7.6,2.887,9.113,9.113,0,0,0,10.737-1.627l2.019-2.016,5.222,5.222-2.016,2.019a9.117,9.117,0,0,0-1.627,10.74,39.959,39.959,0,0,1,2.884,7.6,9.1,9.1,0,0,0,8.739,6.421h2.848Z" transform="translate(-105.931 -105.931)" fill="#9ab4ce"/>
      </g>
    </g>
    <g id="Group_22" data-name="Group 22" transform="translate(473.029 2484.205)">
      <g id="Group_21" data-name="Group 21">
        <path id="Path_6" data-name="Path 6" d="M209.85,185.379a24.471,24.471,0,1,0,24.471,24.471A24.5,24.5,0,0,0,209.85,185.379Zm0,42.824A18.353,18.353,0,1,1,228.2,209.85,18.374,18.374,0,0,1,209.85,228.2Z" transform="translate(-185.379 -185.379)" fill="#9ab4ce"/>
      </g>
    </g>
  </g>
</svg>
