<svg xmlns="http://www.w3.org/2000/svg" width="185" height="185" viewBox="0 0 185 185">
  <g id="Group_72" data-name="Group 72" transform="translate(-1335 -2460)">
    <g id="Group_24" data-name="Group 24" transform="translate(1375.511 2460)">
      <g id="Group_23" data-name="Group 23">
        <path id="Path_7" data-name="Path 7" d="M208.931,19.843A84.89,84.89,0,0,0,158.05,3.059c-16.833,0-33.556,4.845-46,13.159V3.059a3.059,3.059,0,1,0-6.118,0V22.3a3.059,3.059,0,0,0,5.014,2.352C122.61,14.964,140.22,9.176,158.05,9.176a78.83,78.83,0,0,1,47.241,15.585,3.059,3.059,0,0,0,3.64-4.918Z" transform="translate(-105.93 0)" fill="#9ab4ce"/>
      </g>
    </g>
    <g id="Group_26" data-name="Group 26" transform="translate(1494.639 2500.511)">
      <g id="Group_25" data-name="Group 25">
        <path id="Path_8" data-name="Path 8" d="M461.114,105.931H441.871a3.062,3.062,0,0,0-2.349,5.017C449.212,122.611,455,140.221,455,158.054a78.814,78.814,0,0,1-15.585,47.238,3.058,3.058,0,1,0,4.916,3.64,84.893,84.893,0,0,0,16.784-50.881c0-16.833-4.845-33.559-13.159-46h13.159a3.059,3.059,0,1,0,0-6.118Z" transform="translate(-438.813 -105.931)" fill="#9ab4ce"/>
      </g>
    </g>
    <g id="Group_28" data-name="Group 28" transform="translate(1375.249 2619.639)">
      <g id="Group_27" data-name="Group 27">
        <path id="Path_9" data-name="Path 9" d="M207.725,439.1a3.056,3.056,0,0,0-3.255.416C192.8,449.211,175.193,455,157.363,455a78.814,78.814,0,0,1-47.238-15.585,3.059,3.059,0,1,0-3.643,4.916,84.893,84.893,0,0,0,50.881,16.784c16.833,0,33.556-4.845,46-13.159v13.159a3.059,3.059,0,0,0,6.118,0V441.87A3.046,3.046,0,0,0,207.725,439.1Z" transform="translate(-105.244 -438.811)" fill="#9ab4ce"/>
      </g>
    </g>
    <g id="Group_30" data-name="Group 30" transform="translate(1335 2500.249)">
      <g id="Group_29" data-name="Group 29">
        <path id="Path_10" data-name="Path 10" d="M24.654,204.47C14.964,192.8,9.176,175.194,9.176,157.363a78.831,78.831,0,0,1,15.582-47.238,3.059,3.059,0,0,0-4.916-3.643A84.9,84.9,0,0,0,3.059,157.363c0,16.833,4.845,33.556,13.159,46H3.059a3.059,3.059,0,0,0,0,6.118H22.3a3.059,3.059,0,0,0,2.352-5.014Z" transform="translate(0 -105.244)" fill="#9ab4ce"/>
      </g>
    </g>
    <g id="Group_32" data-name="Group 32" transform="translate(1381 2515.475)">
      <g id="Group_31" data-name="Group 31">
        <path id="Path_11" data-name="Path 11" d="M179.391,132.414H90.738a2.464,2.464,0,0,0-2.463,2.463V198.9a2.464,2.464,0,0,0,2.463,2.463H121.6l11.574,13.889a2.461,2.461,0,0,0,3.783,0l11.574-13.889H179.39a2.464,2.464,0,0,0,2.463-2.463V134.876A2.464,2.464,0,0,0,179.391,132.414Zm-2.463,64.027H147.377a2.461,2.461,0,0,0-1.891.887l-10.422,12.5-10.421-12.5a2.461,2.461,0,0,0-1.891-.887H93.2v-59.1h83.727Z" transform="translate(-88.275 -132.414)" fill="#9ab4ce"/>
      </g>
    </g>
    <path id="Union_11" data-name="Union 11" d="M12.8,4.926H1.99A2.265,2.265,0,0,1,0,2.462,2.265,2.265,0,0,1,1.99,0H58.873a2.515,2.515,0,0,1,2.56,2.462,2.514,2.514,0,0,1-2.56,2.463Z" transform="translate(1397.186 2552.44)" fill="#9ab4ce"/>
    <path id="Union_12" data-name="Union 12" d="M51.976,4.926H2.736A2.611,2.611,0,0,1,0,2.462,2.611,2.611,0,0,1,2.736,0H59.441a2.266,2.266,0,0,1,1.99,2.462,2.266,2.266,0,0,1-1.99,2.463Z" transform="translate(1397.186 2564.298)" fill="#9ab4ce"/>
    <g id="Group_42" data-name="Group 42" transform="translate(1397 2529.49)">
      <g id="Group_41" data-name="Group 41">
        <path id="Path_16" data-name="Path 16" d="M137.191,176.552H125.529a1.945,1.945,0,0,0-1.944,1.944v11.662a1.945,1.945,0,0,0,1.944,1.944h11.662a1.945,1.945,0,0,0,1.944-1.944V178.5A1.944,1.944,0,0,0,137.191,176.552Zm-1.944,11.662h-7.775v-7.775h7.775Z" transform="translate(-123.585 -176.552)" fill="#9ab4ce"/>
      </g>
    </g>
    <g id="Group_44" data-name="Group 44" transform="translate(1442.883 2529.49)">
      <g id="Group_43" data-name="Group 43">
        <path id="Path_17" data-name="Path 17" d="M331.4,176.552H319.736a1.945,1.945,0,0,0-1.944,1.944v11.662a1.944,1.944,0,0,0,1.944,1.944H331.4a1.945,1.945,0,0,0,1.944-1.944V178.5A1.944,1.944,0,0,0,331.4,176.552Zm-1.944,11.662H321.68v-7.775h7.775Z" transform="translate(-317.792 -176.552)" fill="#9ab4ce"/>
      </g>
    </g>
    <g id="Group_46" data-name="Group 46" transform="translate(1420 2529.49)">
      <g id="Group_45" data-name="Group 45">
        <path id="Path_18" data-name="Path 18" d="M234.3,176.552H222.633a1.945,1.945,0,0,0-1.944,1.944v11.662a1.945,1.945,0,0,0,1.944,1.944H234.3a1.945,1.945,0,0,0,1.944-1.944V178.5A1.945,1.945,0,0,0,234.3,176.552Zm-1.944,11.662h-7.775v-7.775h7.775Z" transform="translate(-220.689 -176.552)" fill="#9ab4ce"/>
      </g>
    </g>
  </g>
</svg>
