<svg id="linkedin" xmlns="http://www.w3.org/2000/svg" width="50" height="50" viewBox="0 0 50 50">
  <path id="Path_55" data-name="Path 55" d="M37.761,48.047H2.966a.984.984,0,0,1-.989-.977V2.93a.984.984,0,0,1,.989-.977H4.943A.983.983,0,0,0,5.931.977.983.983,0,0,0,4.943,0H2.966A2.951,2.951,0,0,0,0,2.93V47.07A2.951,2.951,0,0,0,2.966,50h34.8a.977.977,0,1,0,0-1.953Zm0,0" fill="#c4c4c4"/>
  <path id="Path_56" data-name="Path 56" d="M155.784,0h-34.8A.983.983,0,0,0,120,.977a.983.983,0,0,0,.989.977h34.8a.984.984,0,0,1,.989.977V47.07a.984.984,0,0,1-.989.977h-1.977a.977.977,0,1,0,0,1.953h1.977a2.951,2.951,0,0,0,2.966-2.93V2.93A2.951,2.951,0,0,0,155.784,0Zm0,0" transform="translate(-108.75)" fill="#c4c4c4"/>
  <path id="Path_57" data-name="Path 57" d="M75.445,81.141A4.945,4.945,0,1,0,70.5,76.2,4.951,4.951,0,0,0,75.445,81.141Zm0-8.016a3.07,3.07,0,1,1-3.07,3.07A3.074,3.074,0,0,1,75.445,73.125Zm0,0" transform="translate(-63.891 -64.57)" fill="#c4c4c4"/>
  <path id="Path_58" data-name="Path 58" d="M208.086,181.75a9.126,9.126,0,0,0-5.672,1.994v-.588a.938.938,0,0,0-.937-.937h-6.539a.937.937,0,0,0-.937.938v21.938a.937.937,0,0,0,.938.938h6.891a.938.938,0,0,0,.938-.937V192.432a2.836,2.836,0,1,1,5.672,0v12.662a.937.937,0,0,0,.938.938h6.891a.938.938,0,0,0,.938-.937V190.867A9.128,9.128,0,0,0,208.086,181.75Zm7.242,22.406h-5.016V192.432a4.711,4.711,0,1,0-9.422,0v11.725h-5.016V184.094h4.664v1.97a.937.937,0,0,0,1.694.553,7.235,7.235,0,0,1,13.095,4.251Zm0,0" transform="translate(-173.813 -162.711)" fill="#c4c4c4"/>
  <path id="Path_59" data-name="Path 59" d="M77.438,186.75a.937.937,0,0,0-.937.938v21.938a.937.937,0,0,0,.938.938h6.891a.938.938,0,0,0,.938-.937V187.688a.938.938,0,0,0-.937-.937Zm5.953,21.938H78.375V188.625h5.016Zm0,0" transform="translate(-69.328 -167.242)" fill="#c4c4c4"/>
  <path id="Path_60" data-name="Path 60" d="M80.938,1.875a.938.938,0,0,0,0-1.875h0a.938.938,0,0,0,0,1.875Zm0,0" transform="translate(-72.5)" fill="#c4c4c4"/>
  <path id="Path_61" data-name="Path 61" d="M412.938,492h0a.938.938,0,1,0,.938.938A.937.937,0,0,0,412.937,492Zm0,0" transform="translate(-371.375 -443.875)" fill="#c4c4c4"/>
</svg>
