<?xml version="1.0" encoding="iso-8859-1"?>
<!-- Generator: Adobe Illustrator 19.0.0, SVG Export Plug-In . SVG Version: 6.00 Build 0)  -->
<svg version="1.1" id="Capa_1" xmlns="http://www.w3.org/2000/svg" xmlns:xlink="http://www.w3.org/1999/xlink" x="0px" y="0px"
	 viewBox="0 0 512 512" style="enable-background:new 0 0 512 512;" xml:space="preserve">
<g>
	<g>
		<path d="M403.182,57.265C360.395,25.573,309.619,8.828,256.344,8.828c-48.578,0-96.839,13.983-132.758,37.976V8.828
			c0-4.873-3.955-8.828-8.828-8.828c-4.873,0-8.828,3.955-8.828,8.828v55.534c0,3.425,1.977,6.541,5.076,7.989
			c3.098,1.448,6.753,0.989,9.393-1.201c33.668-27.966,84.489-44.668,135.945-44.668c49.461,0,96.6,15.554,136.333,44.977
			c1.58,1.165,3.416,1.73,5.244,1.73c2.701,0,5.367-1.236,7.097-3.575C407.923,65.695,407.102,60.169,403.182,57.265z"/>
	</g>
</g>
<g>
	<g>
		<path d="M503.172,105.931h-55.534c-3.425,0-6.524,1.986-7.98,5.085c-1.457,3.098-0.989,6.762,1.201,9.393
			c27.966,33.66,44.668,84.48,44.668,135.945c0,49.461-15.554,96.6-44.977,136.324c-2.904,3.919-2.083,9.445,1.836,12.35
			c1.58,1.165,3.416,1.73,5.244,1.73c2.701,0,5.367-1.236,7.106-3.575c31.691-42.787,48.437-93.564,48.437-146.838
			c0-48.578-13.983-96.847-37.976-132.758h37.976c4.873,0,8.828-3.955,8.828-8.828C512,109.886,508.045,105.931,503.172,105.931z"/>
	</g>
</g>
<g>
	<g>
		<path d="M400.993,439.658c-3.098-1.448-6.762-0.998-9.393,1.201c-33.668,27.966-84.489,44.668-135.945,44.668
			c-49.461,0-96.6-15.554-136.324-44.977c-3.928-2.913-9.445-2.075-12.35,1.836c-2.904,3.919-2.083,9.445,1.836,12.35
			c42.787,31.691,93.564,48.437,146.838,48.437c48.578,0,96.839-13.983,132.758-37.976v37.976c0,4.873,3.955,8.828,8.828,8.828
			s8.828-3.955,8.828-8.828v-55.534C406.069,444.213,404.092,441.097,400.993,439.658z"/>
	</g>
</g>
<g>
	<g>
		<path d="M71.15,391.601c-27.966-33.668-44.668-84.489-44.668-135.945c0-49.461,15.554-96.6,44.968-136.324
			c2.904-3.919,2.083-9.445-1.836-12.35c-3.928-2.913-9.445-2.074-12.35,1.836C25.573,151.614,8.828,202.381,8.828,255.656
			c0,48.578,13.983,96.839,37.976,132.758H8.828c-4.873,0-8.828,3.955-8.828,8.828s3.955,8.828,8.828,8.828h55.534
			c3.425,0,6.532-1.977,7.989-5.076S73.34,394.231,71.15,391.601z"/>
	</g>
</g>
<g>
	<g>
		<path d="M414.897,132.414H97.103c-4.873,0-8.828,3.955-8.828,8.828v229.517c0,4.873,3.955,8.828,8.828,8.828h110.627l41.49,49.788
			c1.677,2.013,4.158,3.178,6.78,3.178s5.102-1.165,6.78-3.178l41.49-49.788h110.627c4.873,0,8.828-3.955,8.828-8.828V141.241
			C423.724,136.369,419.769,132.414,414.897,132.414z M406.069,361.931H300.138c-2.622,0-5.102,1.165-6.78,3.178L256,409.935
			l-37.358-44.826c-1.677-2.013-4.158-3.178-6.78-3.178H105.931V150.069h300.138V361.931z"/>
	</g>
</g>
<g>
	<g>
		<path d="M185.379,273.655h-52.966c-4.873,0-8.828,3.955-8.828,8.828c0,4.873,3.955,8.828,8.828,8.828h52.966
			c4.873,0,8.828-3.955,8.828-8.828C194.207,277.61,190.252,273.655,185.379,273.655z"/>
	</g>
</g>
<g>
	<g>
		<path d="M379.586,273.655H220.69c-4.873,0-8.828,3.955-8.828,8.828c0,4.873,3.955,8.828,8.828,8.828h158.897
			c4.873,0,8.828-3.955,8.828-8.828C388.414,277.61,384.459,273.655,379.586,273.655z"/>
	</g>
</g>
<g>
	<g>
		<path d="M379.586,317.793h-52.966c-4.873,0-8.828,3.955-8.828,8.828s3.955,8.828,8.828,8.828h52.966
			c4.873,0,8.828-3.955,8.828-8.828S384.459,317.793,379.586,317.793z"/>
	</g>
</g>
<g>
	<g>
		<path d="M291.31,317.793H132.414c-4.873,0-8.828,3.955-8.828,8.828s3.955,8.828,8.828,8.828H291.31
			c4.873,0,8.828-3.955,8.828-8.828S296.183,317.793,291.31,317.793z"/>
	</g>
</g>
<g>
	<g>
		<path d="M185.379,176.552h-52.966c-4.873,0-8.828,3.955-8.828,8.828v52.966c0,4.873,3.955,8.828,8.828,8.828h52.966
			c4.873,0,8.828-3.955,8.828-8.828v-52.966C194.207,180.506,190.252,176.552,185.379,176.552z M176.552,229.517h-35.31v-35.31
			h35.31V229.517z"/>
	</g>
</g>
<g>
	<g>
		<path d="M379.586,176.552h-52.966c-4.873,0-8.828,3.955-8.828,8.828v52.966c0,4.873,3.955,8.828,8.828,8.828h52.966
			c4.873,0,8.828-3.955,8.828-8.828v-52.966C388.414,180.506,384.459,176.552,379.586,176.552z M370.759,229.517h-35.31v-35.31
			h35.31V229.517z"/>
	</g>
</g>
<g>
	<g>
		<path d="M282.483,176.552h-52.966c-4.873,0-8.828,3.955-8.828,8.828v52.966c0,4.873,3.955,8.828,8.828,8.828h52.966
			c4.873,0,8.828-3.955,8.828-8.828v-52.966C291.31,180.506,287.356,176.552,282.483,176.552z M273.655,229.517h-35.31v-35.31h35.31
			V229.517z"/>
	</g>
</g>
<g>
</g>
<g>
</g>
<g>
</g>
<g>
</g>
<g>
</g>
<g>
</g>
<g>
</g>
<g>
</g>
<g>
</g>
<g>
</g>
<g>
</g>
<g>
</g>
<g>
</g>
<g>
</g>
<g>
</g>
</svg>
