<svg id="send" xmlns="http://www.w3.org/2000/svg" width="50" height="50" viewBox="0 0 50 50">
  <path id="Path_47" data-name="Path 47" d="M10,25.085a.87.87,0,0,1-.447-.122L.389,19.479a.768.768,0,0,1-.382-.735A.793.793,0,0,1,.53,18.09L48.862.07a.856.856,0,0,1,1.049.372.755.755,0,0,1-.293,1.017l-39.165,23.5a.878.878,0,0,1-.449.122Zm-7.342-6.1L10,23.373,41.372,4.549Zm0,0" transform="translate(-0.003 -0.014)" fill="#c4c4c4"/>
  <path id="Path_48" data-name="Path 48" d="M100.924,39.978a.783.783,0,0,1-.722-.479L93.935,24.613a.782.782,0,0,1,.3-.964L131.058.146a.784.784,0,0,1,.968,1.222l-28.8,28.021L101.7,39.315a.783.783,0,0,1-.679.658c-.033,0-.066,0-.1,0ZM95.635,24.615l4.936,11.723,1.145-7.447a.78.78,0,0,1,.228-.442L125.435,5.594Zm0,0" transform="translate(-82.263 -0.022)" fill="#c4c4c4"/>
  <path id="Path_49" data-name="Path 49" d="M194.088,37.613a.784.784,0,0,1-.381-.1l-14.1-7.835a.783.783,0,0,1-.165-1.246L208.427.229a.784.784,0,0,1,1.27.861L194.812,37.128a.782.782,0,0,1-.466.44.767.767,0,0,1-.258.044Zm-12.8-8.79,12.412,6.9L206.8,4Zm0,0" transform="translate(-159.758 -0.007)" fill="#c4c4c4"/>
  <path id="Path_50" data-name="Path 50" d="M.783,305.728a.783.783,0,0,1-.554-1.337l5.484-5.484a.783.783,0,1,1,1.108,1.108L1.337,305.5a.779.779,0,0,1-.554.23Zm0,0" transform="translate(0.001 -269.202)" fill="#c4c4c4"/>
  <path id="Path_51" data-name="Path 51" d="M.783,481.011a.783.783,0,0,1-.554-1.337L1.8,478.107A.783.783,0,0,1,2.9,479.215l-1.567,1.567a.779.779,0,0,1-.554.23Zm0,0" transform="translate(0.001 -431.011)" fill="#c4c4c4"/>
  <path id="Path_52" data-name="Path 52" d="M43.45,407.345a.784.784,0,0,1-.554-1.337l4.7-4.7a.783.783,0,1,1,1.108,1.108l-4.7,4.7A.777.777,0,0,1,43.45,407.345Zm0,0" transform="translate(-38.749 -361.262)" fill="#c4c4c4"/>
  <path id="Path_53" data-name="Path 53" d="M171.45,488.76a.783.783,0,0,1-.554-1.337l.784-.783a.783.783,0,1,1,1.108,1.108l-.784.783A.778.778,0,0,1,171.45,488.76Zm0,0" transform="translate(-153.947 -438.76)" fill="#c4c4c4"/>
  <path id="Path_54" data-name="Path 54" d="M205.583,423.627a.783.783,0,0,1-.554-1.337l3.917-3.917a.783.783,0,1,1,1.108,1.108l-3.917,3.917A.778.778,0,0,1,205.583,423.627Zm0,0" transform="translate(-184.641 -376.761)" fill="#c4c4c4"/>
</svg>
